HIERARCHY
ROOT Hips
{
	OFFSET	0.00	0.00	0.00
	CHANNELS 6 Xposition Yposition Zposition Zrotation Xrotation Yrotation
	JOINT LeftUpLeg
	{
		OFFSET	 0.126116	-0.014019	-0.065224
		CHANNELS 3 Zrotation Xrotation Yrotation
		JOINT LeftLeg
		{
			OFFSET	 0.000000	 0.000000	 0.569914
			CHANNELS 3 Zrotation Xrotation Yrotation
			JOINT LeftFoot
			{
				OFFSET	 0.000000	 0.000000	 0.544423
				CHANNELS 3 Zrotation Xrotation Yrotation
				JOINT LeftToeBase
				{
					OFFSET	 0.000000	 0.000000	 0.207117
					CHANNELS 3 Zrotation Xrotation Yrotation
					End Site
					{
						OFFSET	 0.000000	 0.000000	 0.207117
					}
				}
			}
		}
	}
	JOINT RightUpLeg
	{
		OFFSET	-0.124023	-0.008373	-0.065224
		CHANNELS 3 Zrotation Xrotation Yrotation
		JOINT RightLeg
		{
			OFFSET	 0.000000	 0.000000	 0.570047
			CHANNELS 3 Zrotation Xrotation Yrotation
			JOINT RightFoot
			{
				OFFSET	 0.000000	 0.000000	 0.544354
				CHANNELS 3 Zrotation Xrotation Yrotation
				JOINT RightToeBase
				{
					OFFSET	 0.000000	 0.000000	 0.207540
					CHANNELS 3 Zrotation Xrotation Yrotation
					End Site
					{
						OFFSET	 0.000000	 0.000000	 0.207540
					}
				}
			}
		}
	}
	JOINT Spine
	{
		OFFSET	 0.000184	-0.007763	 0.117403
		CHANNELS 3 Zrotation Xrotation Yrotation
		JOINT Spine1
		{
			OFFSET	 0.000000	 0.000000	 0.137269
			CHANNELS 3 Zrotation Xrotation Yrotation
			JOINT Spine2
			{
				OFFSET	 0.000000	 0.000000	 0.156879
				CHANNELS 3 Zrotation Xrotation Yrotation
				JOINT LeftShoulder
				{
					OFFSET	 0.080501	-0.002496	 0.160144
					CHANNELS 3 Zrotation Xrotation Yrotation
					JOINT LeftArm
					{
						OFFSET	 0.000000	 0.000000	 0.164363
						CHANNELS 3 Zrotation Xrotation Yrotation
						JOINT LeftForeArm
						{
							OFFSET	 0.000000	 0.000000	 0.364576
							CHANNELS 3 Zrotation Xrotation Yrotation
							JOINT LeftHand
							{
								OFFSET	 0.000000	 0.000000	 0.360812
								CHANNELS 3 Zrotation Xrotation Yrotation
								JOINT LeftHandIndex1
								{
									OFFSET	 0.000000	 0.000000	 0.086006
									CHANNELS 3 Zrotation Xrotation Yrotation
									JOINT LeftHandIndex2
									{
										OFFSET	 0.000000	 0.000000	 0.047236
										CHANNELS 3 Zrotation Xrotation Yrotation
										JOINT LeftHandIndex3
										{
											OFFSET	-0.004284	-0.000551	 0.038166
											CHANNELS 3 Zrotation Xrotation Yrotation
											End Site
											{
												OFFSET	-0.004284	-0.000551	 0.038166
											}
										}
									}
								}
							}
						}
					}
				}
				JOINT Neck
				{
					OFFSET	 0.000000	 0.000000	 0.176489
					CHANNELS 3 Zrotation Xrotation Yrotation
					JOINT Head
					{
						OFFSET	 0.000000	-0.001747	 0.077940
						CHANNELS 3 Zrotation Xrotation Yrotation
						End Site
						{
							OFFSET	 0.000000	-0.001747	 0.077940
						}
					}
				}
				JOINT RightShoulder
				{
					OFFSET	-0.080363	 0.000306	 0.159706
					CHANNELS 3 Zrotation Xrotation Yrotation
					JOINT RightArm
					{
						OFFSET	 0.000000	 0.000000	 0.164196
						CHANNELS 3 Zrotation Xrotation Yrotation
						JOINT RightForeArm
						{
							OFFSET	 0.000000	 0.000000	 0.365611
							CHANNELS 3 Zrotation Xrotation Yrotation
							JOINT RightHand
							{
								OFFSET	 0.000000	 0.000000	 0.360648
								CHANNELS 3 Zrotation Xrotation Yrotation
								JOINT RightHandIndex1
								{
									OFFSET	 0.000000	 0.000000	 0.069977
									CHANNELS 3 Zrotation Xrotation Yrotation
									JOINT RightHandIndex2
									{
										OFFSET	 0.000000	 0.000000	 0.052305
										CHANNELS 3 Zrotation Xrotation Yrotation
										JOINT RightHandIndex3
										{
											OFFSET	 0.009002	-0.000782	 0.042196
											CHANNELS 3 Zrotation Xrotation Yrotation
											End Site
											{
												OFFSET	 0.009002	-0.000782	 0.042196
											}
										}
									}
								}
							}
						}
					}
				}
			}
		}
	}
}
MOTION
Frames:    11
Frame Time: 0.03333334
 0.000107	 0.041647	 1.275615	-0.102414	 2.108939	 0.449386	 4.675484	-5.188700	 178.131200	 2.357618	-12.875070	 0.618617	-0.639310	 71.076580	 0.429670	-2.385833	 28.452750	 0.000004	 2.954214	-4.812787	-178.315700	-0.807617	-11.571520	 0.871901	 5.592770	 70.115810	 0.722373	 2.384659	 28.388700	-0.000001	-6.310662	 6.099531	 1.298476	-3.024801	-2.542735	-0.154061	 9.454266	 5.033642	-0.480884	-91.262440	 70.443940	-178.050800	-8.655059	 3.960115	-18.511290	 26.370820	-0.138341	-0.535602	-10.350490	-21.432040	-4.213524	-2.027600	 6.559038	 9.033609	-5.188889	 0.308190	 3.541030	-5.234859	 0.342567	 0.430617	 4.182750	 16.071890	-6.150435	 4.511699	-12.358740	 2.152782	 89.141480	 69.584710	 177.635400	 9.611480	 7.794528	 7.819802	-26.851810	-7.297670	 20.088630	 7.973341	-21.830030	 6.845200	 1.803333	 3.979147	-15.098590	 4.898592	 3.004813	-9.310344	 5.224449	 0.395017	 2.014677
-0.000703	 0.047040	 1.277305	-0.017292	 3.509460	 0.482909	 4.757371	-6.179329	 178.182600	 2.144034	-11.207500	 0.497997	-0.014979	 69.775630	-0.055409	-2.385833	 28.452750	 0.000004	 2.591904	-5.611670	-178.218300	-0.797618	-9.551557	 0.722951	 4.594907	 68.761250	 1.764836	 2.384659	 28.388700	-0.000001	-7.793488	 6.964991	 1.536274	-3.158560	-5.632758	-0.510849	 9.559248	 8.625153	-0.854459	-90.960820	 68.371410	-177.376300	-7.094620	 3.740326	-21.346240	 24.848010	-0.120064	-0.993038	-7.790484	-24.358310	-5.134058	-2.027600	 6.559038	 9.033609	-5.188889	 0.308190	 3.541030	-5.234859	 0.342567	 0.430617	 4.704324	 21.670570	-7.889128	 5.083430	-16.771320	 2.329267	 88.697320	 66.504280	 176.774500	 7.684264	 6.322299	 9.954519	-26.258940	-7.694166	 22.202370	 4.799901	-23.560010	 6.032903	 1.803333	 3.979147	-15.098590	 4.898592	 3.004813	-9.310344	 5.224449	 0.395017	 2.014677
-0.001819	 0.055559	 1.277824	 0.142804	 5.446790	 0.609550	 4.671739	-8.399530	 178.154800	 2.133020	-10.504010	 0.465095	 0.570495	 68.974470	-0.721420	-2.385833	 28.452760	 0.000004	 2.079125	-7.366055	-178.253800	-1.053388	-7.982424	 0.569328	 3.752467	 67.471790	 2.938231	 2.384659	 28.388700	-0.000001	-9.063732	 7.781969	 1.641301	-3.176291	-8.886182	-0.860068	 8.968480	 11.881100	-1.148849	-90.828770	 66.561200	-177.274000	-5.012738	 5.384799	-23.970390	 22.324320	-0.079171	-1.536817	-7.112862	-27.648200	-6.995054	-2.027600	 6.559038	 9.033609	-5.188889	 0.308190	 3.541030	-5.234859	 0.342567	 0.430617	 4.536693	 25.469010	-8.777017	 5.371454	-20.154160	 2.473552	 88.405120	 63.393440	 176.487200	 5.211695	 6.582263	 11.783370	-24.857980	-7.486191	 23.930200	 2.290545	-25.521540	 6.003799	 1.803333	 3.979147	-15.098590	 4.898592	 3.004813	-9.310344	 5.224449	 0.395017	 2.014677
-0.002643	 0.067274	 1.277088	 0.454535	 7.974728	 0.705337	 4.325679	-12.305090	 178.185200	 2.046326	-11.595890	 0.495345	 1.593853	 68.733730	-1.784194	-2.385833	 28.452760	 0.000004	 1.434617	-10.649650	-178.341100	-1.482228	-7.934877	 0.506489	 3.326608	 66.812140	 3.876333	 2.384659	 28.388700	-0.000001	-10.215740	 8.377169	 1.566955	-3.091337	-12.281830	-1.058812	 7.911628	 14.695570	-1.288756	-91.286130	 65.079200	-178.693000	-2.388033	 7.644171	-24.945850	 19.287940	-0.017468	-2.129177	-8.121220	-30.069670	-9.448605	-2.027600	 6.559038	 9.033609	-5.188889	 0.308190	 3.541030	-5.234859	 0.342567	 0.430617	 3.900627	 26.822840	-8.775939	 5.025500	-21.855320	 2.341802	 88.794710	 61.270060	 177.677700	 1.737057	 8.187076	 11.588470	-22.968950	-7.142257	 26.237980	 0.458715	-27.195490	 6.662345	 1.803333	 3.979147	-15.098590	 4.898592	 3.004813	-9.310344	 5.224449	 0.395017	 2.014677
-0.003021	 0.082245	 1.275402	 0.808783	 11.039360	 0.644050	 3.870850	-17.375280	 178.401700	 2.012503	-13.494570	 0.567148	 2.908395	 68.639530	-3.237248	-2.385832	 28.452790	-0.000001	 0.953260	-15.355680	-178.328100	-1.756466	-9.162761	 0.540407	 2.803034	 66.636860	 4.787090	 2.384659	 28.388700	-0.000001	-11.291220	 8.718480	 1.479439	-2.763019	-15.143790	-1.148324	 6.537880	 16.669240	-0.939843	-92.326130	 65.005130	 178.538300	-0.256986	 10.247030	-17.755540	 17.809250	-1.739212	-16.469100	-8.715253	-31.817760	-11.237310	-2.027600	 6.559038	 9.033609	-5.188889	 0.308190	 3.541030	-5.234859	 0.342567	 0.430617	 3.261075	 25.776390	-8.940011	 4.181897	-22.081520	 2.044109	 89.798390	 60.439200	-179.962700	-1.907546	 11.449860	 9.957419	-20.824170	-6.706962	 29.213230	-0.339601	-29.077110	 7.365545	 1.803333	 3.979147	-15.098590	 4.898592	 3.004813	-9.310344	 5.224449	 0.395017	 2.014677
-0.004972	 0.105295	 1.273470	 2.170525	 16.481430	 0.712466	 2.046172	-25.167620	 178.124500	 2.798944	-14.726130	 0.818176	 3.462184	 67.430210	-4.808802	-2.385833	 28.452760	 0.000004	-0.544862	-22.655060	-178.805300	-1.402068	-9.977760	 0.649643	 0.788754	 65.342680	 6.721136	 2.384659	 28.388700	-0.000001	-12.800290	 8.316597	 1.135569	-2.668818	-17.236710	-1.324904	 4.469756	 17.026110	-0.514444	-93.520310	 65.309910	 175.298600	 3.501193	 14.495220	-16.230630	 17.006600	-1.976074	-21.632200	-8.762415	-33.000230	-12.507020	-2.027600	 6.559038	 9.033609	-5.188889	 0.308190	 3.541030	-5.234859	 0.342567	 0.430617	 2.681958	 24.416470	-8.494052	 2.774528	-22.335050	 1.509094	 91.127940	 60.571610	-176.909300	-6.551285	 16.497800	 10.006600	-18.359930	-5.617090	 31.364760	-0.252520	-30.786640	 8.546605	 1.803333	 3.979147	-15.098590	 4.898592	 3.004813	-9.310344	 5.224449	 0.395017	 2.014677
-0.008314	 0.125664	 1.270897	 3.953800	 21.426670	 0.474640	-0.413126	-31.542120	 177.435300	 3.647822	-14.946950	 1.049947	 3.221483	 65.887710	-5.595515	-2.385833	 28.452760	 0.000004	-2.400920	-29.358830	-179.394400	-1.980361	-11.817240	 0.648986	 0.091367	 65.145880	 8.233191	 2.384659	 28.388700	-0.000001	-14.281190	 8.465705	 0.756061	-2.689112	-16.646660	-0.770141	 2.490902	 15.959910	-0.726307	-94.283380	 66.035300	 172.994000	 6.412134	 17.749600	-19.627290	 16.474910	-1.506609	-20.860860	-9.185455	-34.187460	-13.622930	-2.027600	 6.559038	 9.033609	-5.188889	 0.308190	 3.541030	-5.234859	 0.342567	 0.430617	 2.239956	 23.765270	-6.973511	 1.076391	-23.031930	 0.441362	 92.155350	 61.501380	-174.375700	-10.270540	 21.168830	 12.868950	-16.964880	-4.967913	 33.305940	 0.228560	-31.826450	 9.655190	 1.803333	 3.979147	-15.098590	 4.898592	 3.004813	-9.310344	 5.224449	 0.395017	 2.014677
-0.011913	 0.140412	 1.265737	 4.373460	 23.161660	 0.284726	-1.059293	-35.490520	 177.084600	 3.712900	-18.251860	 1.295346	 4.157516	 67.244610	-6.724925	-2.385833	 28.452750	 0.000004	-2.879303	-34.100910	-179.673400	-1.997671	-17.123520	 0.927908	-0.410815	 67.491290	 8.888649	 2.384659	 28.388700	-0.000001	-15.170390	 10.457610	 0.500010	-1.937467	-11.625870	 0.373807	 0.933672	 14.479880	-1.021788	-94.575610	 68.308170	 171.045900	 7.778126	 19.669090	-24.893710	 16.053880	-1.187273	-21.269400	-9.866552	-35.983310	-14.675090	-2.027600	 6.559038	 9.033609	-5.188889	 0.308190	 3.541030	-5.234859	 0.342567	 0.430617	 1.535054	 22.649890	-6.075224	-0.474636	-23.543450	-0.386798	 92.794430	 62.635630	-172.555200	-12.049440	 24.560000	 18.332200	-15.433460	-4.326817	 36.385610	 2.826832	-33.669060	 11.522550	 1.803333	 3.979147	-15.098590	 4.898592	 3.004813	-9.310344	 5.224449	 0.395017	 2.014677
-0.014677	 0.165411	 1.257697	 3.561558	 25.413970	 0.028400	-0.166269	-40.911480	 177.547100	 3.901984	-21.551390	 1.588954	 5.365675	 67.475300	-8.169710	-2.385833	 28.452750	 0.000004	-1.349423	-40.226180	-178.977200	-2.919097	-21.314850	 0.809923	 0.385530	 67.964390	 9.303938	 2.384659	 28.388700	-0.000001	-15.651700	 11.762120	 0.029679	-0.526364	-6.574839	 1.460704	-0.603568	 12.922600	-0.775286	-94.601000	 70.572490	 169.180800	 7.498797	 19.788530	-29.235890	 14.709670	-0.703470	-23.674820	-12.053100	-38.851610	-16.158840	-2.027600	 6.559038	 9.033609	-5.188889	 0.308190	 3.541030	-5.234859	 0.342567	 0.430617	 0.757633	 21.597400	-5.478767	-2.035884	-24.147830	-1.222457	 93.239820	 64.785530	-170.624300	-13.425460	 27.149810	 25.220760	-13.593630	-3.062147	 38.100320	 6.913317	-36.135050	 14.057220	 1.803333	 3.979147	-15.098590	 4.898592	 3.004813	-9.310344	 5.224449	 0.395017	 2.014677
-0.017195	 0.190528	 1.248476	 3.783537	 27.794840	-1.246765	 0.704082	-45.625860	 179.125400	 4.556465	-22.474500	 1.905129	 5.603102	 66.222770	-9.051240	-2.385833	 28.452750	 0.000004	 0.285808	-46.286800	-177.061800	-4.843489	-24.570880	 0.125906	 2.326064	 67.220340	 9.584237	 2.384659	 28.388700	-0.000001	-16.035090	 12.314080	-0.649887	 0.374499	-1.783458	 2.416752	-2.386747	 11.612200	-0.493133	-95.350380	 69.503330	 167.533600	 4.691396	 16.363250	-29.899450	 13.281750	-0.201036	-28.885870	-14.217590	-40.949890	-17.439830	-2.027600	 6.559038	 9.033609	-5.188889	 0.308190	 3.541030	-5.234859	 0.342567	 0.430617	-0.058336	 23.799890	-4.113308	-3.838475	-27.429010	-3.243854	 94.085540	 64.455180	-168.523200	-13.030360	 25.124700	 28.461230	-11.749560	-1.795677	 41.175430	 9.959517	-37.169530	 16.245570	 1.803333	 3.979147	-15.098590	 4.898592	 3.004813	-9.310344	 5.224449	 0.395017	 2.014677
-0.021778	 0.207202	 1.236000	 4.279638	 30.181470	-3.265835	 2.278592	-50.055480	-178.341000	 5.127589	-24.292390	 2.286747	 6.042662	 66.222120	-10.094890	-2.385833	 28.452750	 0.000004	 2.925763	-51.973160	-173.908400	-6.774937	-28.924280	-0.787867	 3.785686	 68.164460	 10.106350	 2.384659	 28.388700	-0.000001	-16.297040	 12.684960	-0.563042	 1.040766	 2.983307	 1.133622	-4.195415	 9.949647	 1.688016	-95.807200	 69.453140	 166.009700	 2.700423	 14.101280	-33.125150	 11.966770	 0.641400	-29.382080	-16.407840	-42.508250	-18.460220	-2.027600	 6.559038	 9.033609	-5.188889	 0.308190	 3.541030	-5.234859	 0.342567	 0.430617	 0.220839	 26.322970	-5.224302	-4.957889	-30.815110	-3.970921	 95.449240	 62.120920	-166.306600	-11.601260	 20.962430	 29.766860	-9.962382	-0.214187	 41.906700	 12.411520	-37.280250	 18.219890	 1.803333	 3.979147	-15.098590	 4.898592	 3.004813	-9.310344	 5.224449	 0.395017	 2.014677
